<svg width="50" height="75" xmlns="http://www.w3.org/2000/svg">
 <!-- Created with Method Draw - http://github.com/duopixel/Method-Draw/ -->
 <g>
  <title>background</title>
  <rect fill="#fff" id="canvas_background" height="77" width="52" y="-1" x="-1"/>
  <g display="none" overflow="visible" y="0" x="0" height="100%" width="100%" id="canvasGrid">
   <rect fill="url(#gridpattern)" stroke-width="0" y="0" x="0" height="100%" width="100%"/>
  </g>
 </g>
 <g>
  <title>Layer 1</title>
  <path id="svg_3" d="m40.273551,9.875029c-4.264476,-4.604227 -8.863948,-8.292502 -12.636933,-8.795325c-0.205399,-0.032616 -0.418134,-0.051641 -0.643095,-0.057077l-24.831279,0c-0.396127,0 -0.787363,0.171232 -1.066119,0.489233c-0.276311,0.309848 -0.440141,0.744722 -0.440141,1.187749l0,69.987519c0,0.44031 0.154049,0.861594 0.440141,1.182313c0.286092,0.315284 0.662656,0.486515 1.066119,0.486515l44.904147,0c0.396127,0 0.775137,-0.168514 1.061228,-0.486515c0.286092,-0.318002 0.445031,-0.739286 0.445031,-1.182313l0,-46.572277c-0.088028,-5.406026 -3.897692,-11.301286 -8.2991,-16.239822zm-2.120012,2.370063c1.968408,2.136318 3.738752,4.555304 5.059174,6.887315c-1.144366,-0.502823 -2.344973,-0.875184 -3.472222,-1.171442c-2.481905,-0.619695 -4.910016,-0.869748 -6.418721,-0.970312c0.007336,-0.361489 0.009781,-0.769183 0.009781,-1.212211c0,-2.361909 -0.134487,-5.729464 -0.870501,-8.697478c-0.007336,-0.02718 -0.012226,-0.054359 -0.022007,-0.081539c1.868153,1.369853 3.902582,3.188169 5.714495,5.245666zm7.401702,58.759619l-41.891627,0l0,-66.63899l23.332355,0l0,0.005436c1.017214,-0.067949 1.895051,1.049133 2.567488,3.604018c0.611307,2.432576 0.765356,5.604437 0.762911,7.803269c0.00489,1.611751 -0.066021,2.6935 -0.066021,2.6935l-0.119816,1.772111l1.604069,0.019026c0.007336,0 3.706964,0.048923 7.335681,0.964876c3.486894,0.837132 6.213322,2.505961 6.467625,4.394944c0.009781,0.168514 0.012226,0.337027 0.009781,0.494669l0,44.887141l-0.002445,0z" fill-opacity="null" stroke-opacity="null" stroke-width="1.5" stroke="#000" fill="#fff"/>
  <path id="svg_4" d="m117.234914,40.838912c-0.00872,-0.00847 -0.018125,-0.015255 -0.02584,-0.01618c-0.00042,-0.00006 -0.000855,-0.000095 -0.001315,-0.000105l-0.050775,0c-0.00081,0 -0.00161,0.000315 -0.00218,0.0009c-0.000565,0.00057 -0.0009,0.00137 -0.0009,0.002185l0,0.12875c0,0.00081 0.000315,0.001585 0.0009,0.002175c0.000585,0.00058 0.001355,0.000895 0.00218,0.000895l0.09182,0c0.00081,0 0.001585,-0.00031 0.00217,-0.000895c0.000585,-0.000585 0.00091,-0.00136 0.00091,-0.002175l0,-0.085675c-0.00018,-0.009945 -0.00797,-0.02079 -0.01697,-0.029875zm-0.004335,0.00436c0.004025,0.00393 0.007645,0.00838 0.010345,0.01267c-0.00234,-0.000925 -0.004795,-0.00161 -0.0071,-0.002155c-0.005075,-0.00114 -0.01004,-0.0016 -0.013125,-0.001785c0.000015,-0.000665 0.00002,-0.001415 0.00002,-0.00223c0,-0.004345 -0.000275,-0.01054 -0.00178,-0.016c-0.000015,-0.00005 -0.000025,-0.0001 -0.000045,-0.00015c0.00382,0.00252 0.00798,0.005865 0.011685,0.00965zm0.015135,0.108095l-0.08566,0l0,-0.12259l0.04771,0l0,0.00001c0.00208,-0.000125 0.003875,0.00193 0.00525,0.00663c0.00125,0.004475 0.001565,0.01031 0.00156,0.014355c0.00001,0.002965 -0.000135,0.004955 -0.000135,0.004955l-0.000245,0.00326l0.00328,0.000035c0.000015,0 0.00758,0.00009 0.015,0.001775c0.00713,0.00154 0.012705,0.00461 0.013225,0.008085c0.00002,0.00031 0.000025,0.00062 0.00002,0.00091l0,0.082575l-0.000005,0z" fill-opacity="null" stroke-opacity="null" stroke-width="1.5" stroke="#000" fill="#fff"/>
  <text xml:space="preserve" text-anchor="start" font-family="Helvetica, Arial, sans-serif" font-size="8" id="svg_6" y="40.3125" x="10.101563" fill-opacity="null" stroke-opacity="null" stroke-width="0" stroke="#000" fill="#000000">Resume</text>
 </g>
</svg>